<?xml version="1.0" encoding="UTF-8"?>
<svg id="Layer_1" data-name="Layer 1" xmlns="http://www.w3.org/2000/svg" viewBox="0 0 1902.22 442.72">
  <defs>
    <style>
      .cls-1 {
        fill: #fff;
        fill-rule: evenodd;
        stroke-width: 0px;
      }
    </style>
  </defs>
  <path class="cls-1" d="m465.81,85.68c23.44,36.09,27.75,80.64,15.98,126.08C56.72,176.18,233.77,54.79,300.37,17.3c70.49-4.8,132.9,18.28,165.44,68.38h0Zm13.9,133.59c-18.18,61.17-65.14,123.18-133.56,167.62-110.31,71.63-239.63,73.74-305.08,9.71,77.52-124.34,273.03-165.75,438.64-177.33h0ZM.3,305.14c31.53-32.55,90.55-76.54,181.51-80.33,0,0-97.63-29.32-41.18-151.42C48.35,133.88-4.48,226.36.3,305.14Z"/>
  <path class="cls-1" d="m804.98,264.64c0,16.71-3.53,30.65-10.67,41.9-7.07,11.25-17.02,19.6-29.87,25.06-12.91,5.46-28.14,8.16-45.88,8.16h-102.8c-3.28,0-6.18-1.35-8.8-3.98-2.64-2.64-3.99-5.53-3.99-8.8V85.25c0-3.53,1.29-6.55,3.86-9.13,2.56-2.56,5.53-3.86,8.94-3.86h89.76c15.1,0,28.14,1.54,39.19,4.63,11.05,3.09,20.23,7.46,27.56,13.24,7.33,5.78,12.91,13.04,16.65,21.78,3.79,8.67,5.65,18.44,5.65,29.23,0,29.49-16.32,49.09-48.96,58.73,19.73,3.27,34.57,10.6,44.47,21.98,9.96,11.31,14.91,25.63,14.91,42.78h0Zm-58.21-123.42c0-12.98-4.95-22.49-14.84-28.72-9.96-6.23-22.36-9.32-37.33-9.32h-41.57v84.3h34.82c39.26,0,58.92-15.42,58.92-46.26h0Zm9.63,123.42c0-11.56-2.5-21.07-7.44-28.59-4.95-7.51-11.44-13.04-19.47-16.44-8.04-3.48-16.84-5.21-26.35-5.21h-50.11v94.45h51.78c9.63,0,18.38-1.54,26.15-4.63,7.77-3.08,14.01-7.9,18.56-14.45,4.56-6.62,6.87-14.97,6.87-25.13h0Zm141.56-152.46c0,3.4-1.28,6.36-3.79,8.87-2.5,2.5-5.46,3.79-8.99,3.79h-26.93c-3.27,0-6.23-1.28-8.87-3.79-2.63-2.51-3.92-5.47-3.92-8.87v-26.86c0-3.53,1.28-6.55,3.85-9.19,2.57-2.56,5.53-3.86,8.93-3.86h26.54c3.54,0,6.62,1.29,9.26,3.79,2.64,2.5,3.92,5.6,3.92,9.25v26.86h0Zm-2.83,214.79c0,3.47-1.21,6.49-3.72,9-2.57,2.5-5.46,3.79-8.87,3.79h-21.65c-3.27,0-6.23-1.35-8.86-3.98-2.64-2.64-3.92-5.53-3.92-8.8v-150.6c0-3.41,1.28-6.43,3.85-9.13,2.57-2.7,5.53-4.05,8.93-4.05h21.65c3.54,0,6.49,1.28,8.93,3.85,2.44,2.57,3.66,5.65,3.66,9.32v150.6h0Zm176.56-.06c0,3.53-1.28,6.55-3.79,9.06-2.5,2.5-5.46,3.79-8.8,3.79h-118.03c-3.27,0-6.16-1.35-8.8-3.98-2.64-2.64-3.98-5.53-3.98-8.8v-5.66c0-2.37,1.08-5.07,3.2-8.1l88.29-124.64c-2.77,0-6.23.06-10.28.13-4.11.06-10.8.13-20.11.26-9.39.13-18.38.32-26.92.52-8.61.19-13.94.25-15.93.25-3.28,0-6.24-1.22-8.87-3.79-2.63-2.5-3.93-5.46-3.93-8.8v-.76c0-3.41,1.29-6.43,3.87-9.13,2.56-2.7,5.52-4.05,8.93-4.05h111.8c3.53,0,6.49,1.35,8.92,4.05,2.44,2.7,3.67,5.71,3.67,9.13v3.79c0,2.83-.84,5.52-2.64,8.09l-87.51,123.82c8.03-.26,19.98-.58,35.79-.9,15.8-.33,29.94-.45,42.53-.45,3.47,0,6.49,1.29,8.93,3.85,2.44,2.57,3.66,5.72,3.66,9.32v3.02h0Zm142.39-5.66c0,1.54-.77,3.02-2.32,4.56-4.37,3.02-9.76,5.92-16.06,8.74-6.36,2.83-13.17,5.14-20.57,6.88-7.32,1.73-14.65,2.64-21.91,2.64-13.43,0-23.06-4.11-28.97-12.4-5.92-8.29-8.87-20.69-8.87-37.07v-104.48h-11.31c-3.41,0-6.3-1.28-8.8-3.79-2.57-2.51-3.79-5.59-3.79-9.19v-.76c0-3.41,1.22-6.43,3.66-9.13,2.44-2.7,5.46-4.05,8.93-4.05h12.07v-37.46c0-3.54,1.29-6.55,3.86-9.13,2.56-2.57,5.52-3.86,8.93-3.86h18.82c3.66,0,6.69,1.28,9.13,3.86,2.44,2.57,3.66,5.58,3.66,9.13v37.46h34.31c3.47,0,6.49,1.28,8.93,3.85,2.44,2.57,3.67,5.65,3.67,9.32v.76c0,3.85-1.29,7.01-3.79,9.38-2.5,2.38-5.46,3.59-8.81,3.59h-33.92v97.67c0,8.81,1.02,15.42,3.02,19.86,1.99,4.43,5.46,6.68,10.35,6.68,5.13,0,10.15-1.16,15.1-3.41,4.89-2.25,8.74-5.27,11.63-9,1.28-1.28,2.5-1.92,3.79-1.92,1.47,0,2.83,1.16,3.91,3.41l4.95,16.77c.13.13.19.26.26.45.06.19.13.45.13.64h0Zm179.7-78.58c0,3.54-1.22,6.55-3.72,9.19-2.51,2.64-5.52,3.98-9.06,3.98h-99.33c.51,21.27,4.56,36.63,12.14,45.94,7.59,9.32,18.83,14.01,33.8,14.01,7.9,0,16.76-1.6,26.6-4.82,9.83-3.14,18.89-9,27.17-17.54,1.03-1.02,2.18-1.47,3.59-1.47,2.51,0,3.99,1.54,4.5,4.69l2.06,23.51v1.09c0,2-.83,3.28-2.43,3.8-9.06,5.65-18.31,10.21-27.83,13.74-9.57,3.54-20.81,5.28-33.73,5.28-32.13,0-55.19-8.74-69.27-26.28-14.07-17.48-21.07-40.1-21.07-67.85,0-18.57,2.57-34.05,7.64-46.39,5.08-12.33,11.7-21.97,19.92-28.78,8.23-6.88,17.17-11.56,26.73-14.2,9.65-2.64,19.54-3.98,29.82-3.98,19.34,0,34.37,4.11,45.1,12.4,10.73,8.28,17.99,18.38,21.72,30.26,3.79,11.89,5.65,24.16,5.65,36.81v6.62h0Zm-38.16-7.38c-.65-17.74-3.48-30.71-8.48-38.82-5.02-8.15-13.62-12.2-25.77-12.2-24.47,0-37.45,17.03-38.94,51.02h73.19Zm208.88,87.12c0,1.09-.57,2.12-1.86,3.02-17.54,12.39-37.39,18.63-59.5,18.63-30.32,0-51.97-8.22-64.89-24.67-12.92-16.44-19.41-39.19-19.41-68.31,0-22.87,3.47-41.31,10.34-55.38,6.94-14.01,16.64-24.1,29.3-30.07,12.59-6.04,27.5-9.05,44.65-9.05,13.11,0,23.2,1.15,30.46,3.4,7.2,2.25,16.19,6.74,26.99,13.56,1.1.77,1.67,2.7,1.67,5.84l-4.31,24.68c-.51,2.64-1.73,3.92-3.79,3.92-1.6,0-2.96-.58-3.92-1.67-7.33-7.33-13.94-12.4-19.98-15.29-6.04-2.89-15.03-4.3-27.12-4.3-10.54,0-18.5,2.83-23.9,8.54-5.39,5.72-8.93,13.17-10.54,22.3-1.6,9.19-2.44,20.36-2.44,33.53,0,23.46,2.96,39.71,8.93,48.84,5.98,9.06,15.29,13.62,27.95,13.62,20.37,0,37.59-7.46,51.79-22.43.77-.7,1.86-1.09,3.4-1.09,1.1,0,2.12.44,3.02,1.28.83.9,1.28,1.86,1.28,2.83l1.86,27.11v1.16h0Zm186.98,4.17c0,3.53-1.28,6.55-3.79,9.19-2.51,2.64-5.53,3.98-9,3.98h-22.81c-3.34,0-6.3-1.28-8.81-3.92-2.5-2.64-3.79-5.73-3.79-9.26v-117.26c0-8.99-1.54-15.1-4.62-18.12-3.08-3.09-8.1-4.63-15.16-4.63-8.29,0-15.29,2.44-21.01,7.33-5.72,4.88-9.96,10.8-12.78,17.79-2.83,6.94-4.25,13.43-4.25,19.41v95.47c0,3.53-1.28,6.62-3.79,9.26-2.5,2.63-5.52,3.92-8.99,3.92h-22.8c-3.35,0-6.3-1.35-8.81-3.98-2.5-2.64-3.8-5.66-3.8-9.19V85.64c0-3.4,1.29-6.49,3.8-9.26,2.51-2.77,5.46-4.11,8.81-4.11h22.04c3.4,0,6.36,1.35,8.87,3.98,2.5,2.64,3.79,5.79,3.79,9.39v108.64c6.88-11.49,14.52-20.23,22.87-26.34,8.3-6.04,19.35-9.05,33.03-9.05,20.05,0,33.61,4.55,40.55,13.75,7,9.13,10.47,21.34,10.47,36.5v117.45Z"/>
  <g>
    <path class="cls-1" d="m1831.9,64.17h12.95c3.68,0,6.2.67,7.56,2.02,1.34,1.36,2.03,4.05,2.09,8.09l.09,5.89c.03,1.87.22,3.7.55,5.48.17.86.47,2,.87,3.4h14.64v-1.6c-1.28-.78-2.1-1.98-2.45-3.63-.24-1.03-.34-3-.34-5.9v-4.26c0-4.45-.62-7.76-1.84-9.93-1.22-2.17-3.29-3.85-6.21-5.02,3.5-1.21,6.01-3.26,7.52-6.18,1.53-2.92,2.29-5.88,2.29-8.89,0-2.5-.4-4.72-1.18-6.67-.78-1.96-1.85-3.74-3.19-5.35-1.63-1.94-3.62-3.43-5.95-4.43-2.33-1.01-5.68-1.54-10.02-1.63h-30.35v63.48h12.96v-24.89h0Zm0-27.57h14.64c2.72,0,4.76.38,6.13,1.13,2.43,1.31,3.63,3.89,3.63,7.74,0,3.56-1.25,5.95-3.75,7.15-1.42.68-3.55,1.03-6.39,1.03h-14.27v-17.05Z"/>
    <path class="cls-1" d="m1844.78,114.85c31.67,0,57.44-25.76,57.44-57.43S1876.45,0,1844.78,0s-57.43,25.76-57.43,57.43,25.77,57.43,57.43,57.43h0Zm0-106.61c27.14,0,49.2,22.06,49.2,49.19s-22.06,49.2-49.2,49.2-49.19-22.07-49.19-49.2,22.06-49.19,49.19-49.19Z"/>
  </g>
</svg>