<?xml version="1.0" encoding="UTF-8"?>
<svg id="Layer_1" data-name="Layer 1" xmlns="http://www.w3.org/2000/svg" viewBox="0 0 1927.73 1682.58">
  <defs>
    <style>
      .cls-1 {
        fill: #35b0bf;
        fill-rule: evenodd;
        stroke-width: 0px;
      }
    </style>
  </defs>
  <path class="cls-1" d="m1839.67,272.51c92.58,142.54,109.58,318.49,63.11,497.94C224,629.92,923.23,150.53,1186.28,2.45c278.38-18.96,524.89,72.2,653.39,270.06h0Zm54.89,527.61c-71.81,241.59-257.27,486.5-527.49,661.99-435.64,282.9-946.38,291.22-1204.86,38.34,306.16-491.08,1078.28-654.61,1732.36-700.33h0ZM1.18,1139.22c124.53-128.53,357.63-302.3,716.87-317.24,0,0-385.57-115.81-162.63-598.02C190.97,462.86-17.7,828.1,1.18,1139.22Z"/>
</svg>