<?xml version="1.0" encoding="UTF-8"?>
<svg id="Layer_1" data-name="Layer 1" xmlns="http://www.w3.org/2000/svg" viewBox="0 0 1956 386.34">
  <defs>
    <style>
      .cls-1 {
        stroke: #fff;
        stroke-miterlimit: 10;
        stroke-width: 1.58px;
      }

      .cls-1, .cls-2, .cls-3 {
        fill: #fff;
      }

      .cls-2, .cls-3 {
        stroke-width: 0px;
      }

      .cls-3 {
        fill-rule: evenodd;
      }
    </style>
  </defs>
  <path class="cls-3" d="m314.48,57.84c15.83,24.37,18.73,54.44,10.79,85.12C38.29,118.94,157.82,36.99,202.79,11.68c47.59-3.24,89.73,12.34,111.69,46.16h0Zm9.38,90.19c-12.28,41.3-43.98,83.16-90.17,113.16-74.47,48.36-161.78,49.78-205.96,6.55,52.34-83.95,184.32-111.9,296.13-119.72h0ZM.2,206c21.29-21.97,61.13-51.68,122.54-54.23,0,0-65.91-19.8-27.8-102.23C32.64,90.38-3.02,152.82.2,206Z"/>
  <path class="cls-3" d="m543.45,178.66c0,11.28-2.38,20.69-7.2,28.28-4.77,7.59-11.49,13.23-20.17,16.92-8.72,3.68-19,5.51-30.97,5.51h-69.4c-2.22,0-4.17-.91-5.94-2.69-1.78-1.78-2.7-3.73-2.7-5.94V57.55c0-2.38.87-4.42,2.61-6.16,1.73-1.73,3.73-2.6,6.03-2.6h60.6c10.19,0,19,1.04,26.46,3.12,7.46,2.08,13.66,5.03,18.6,8.94,4.95,3.9,8.72,8.8,11.24,14.7,2.56,5.86,3.81,12.45,3.81,19.74,0,19.91-11.02,33.14-33.06,39.65,13.32,2.21,23.34,7.16,30.02,14.84,6.72,7.63,10.06,17.3,10.06,28.88h0Zm-39.3-83.32c0-8.76-3.34-15.18-10.02-19.39-6.73-4.2-15.1-6.29-25.2-6.29h-28.06v56.92h23.51c26.5,0,39.77-10.41,39.77-31.23h0Zm6.5,83.32c0-7.8-1.69-14.23-5.03-19.3-3.34-5.07-7.72-8.8-13.14-11.1-5.43-2.35-11.37-3.52-17.79-3.52h-33.83v63.77h34.96c6.5,0,12.41-1.04,17.66-3.12,5.25-2.08,9.46-5.33,12.53-9.76,3.08-4.47,4.64-10.1,4.64-16.96h0Zm95.57-102.93c0,2.29-.87,4.29-2.56,5.99-1.69,1.69-3.69,2.56-6.07,2.56h-18.18c-2.21,0-4.2-.87-5.99-2.56-1.78-1.69-2.64-3.69-2.64-5.99v-18.14c0-2.38.87-4.42,2.6-6.2,1.74-1.73,3.73-2.6,6.03-2.6h17.92c2.39,0,4.47.87,6.25,2.56,1.78,1.69,2.65,3.78,2.65,6.25v18.14h0Zm-1.91,145.01c0,2.34-.82,4.38-2.51,6.07-1.74,1.69-3.69,2.56-5.99,2.56h-14.62c-2.21,0-4.21-.91-5.98-2.69-1.78-1.78-2.64-3.73-2.64-5.94v-101.67c0-2.3.86-4.34,2.6-6.16,1.74-1.82,3.73-2.73,6.03-2.73h14.62c2.39,0,4.38.87,6.03,2.6,1.65,1.74,2.47,3.81,2.47,6.29v101.67h0Zm119.2-.04c0,2.38-.87,4.43-2.56,6.12-1.69,1.69-3.68,2.56-5.94,2.56h-79.69c-2.21,0-4.16-.91-5.94-2.69-1.78-1.78-2.69-3.73-2.69-5.94v-3.82c0-1.6.73-3.42,2.16-5.47l59.6-84.15c-1.87,0-4.21.04-6.94.09-2.77.04-7.29.09-13.58.17-6.34.09-12.41.22-18.18.35-5.81.13-9.41.17-10.75.17-2.21,0-4.21-.82-5.99-2.56-1.78-1.69-2.65-3.68-2.65-5.94v-.52c0-2.3.87-4.34,2.61-6.16,1.73-1.82,3.73-2.73,6.03-2.73h75.48c2.38,0,4.38.91,6.02,2.73,1.65,1.82,2.47,3.86,2.47,6.16v2.56c0,1.91-.57,3.73-1.78,5.46l-59.08,83.59c5.42-.18,13.49-.39,24.16-.61,10.66-.22,20.21-.31,28.71-.31,2.35,0,4.38.87,6.03,2.6,1.65,1.74,2.47,3.87,2.47,6.29v2.04h0Zm96.13-3.82c0,1.04-.52,2.04-1.56,3.08-2.95,2.04-6.59,3.99-10.84,5.9-4.29,1.91-8.89,3.47-13.88,4.64-4.94,1.17-9.89,1.78-14.79,1.78-9.06,0-15.57-2.77-19.56-8.37-3.99-5.6-5.99-13.97-5.99-25.03v-70.54h-7.63c-2.3,0-4.25-.86-5.94-2.56-1.74-1.69-2.56-3.77-2.56-6.2v-.52c0-2.3.82-4.34,2.47-6.16,1.65-1.82,3.68-2.73,6.03-2.73h8.15v-25.29c0-2.39.87-4.43,2.61-6.16,1.73-1.74,3.73-2.6,6.03-2.6h12.71c2.47,0,4.51.87,6.16,2.6,1.65,1.74,2.47,3.77,2.47,6.16v25.29h23.16c2.35,0,4.38.87,6.03,2.6,1.65,1.74,2.48,3.81,2.48,6.29v.52c0,2.6-.87,4.73-2.56,6.33-1.69,1.61-3.69,2.43-5.95,2.43h-22.9v65.94c0,5.94.69,10.41,2.04,13.41,1.35,2.99,3.69,4.51,6.98,4.51,3.46,0,6.85-.78,10.19-2.3,3.3-1.52,5.9-3.56,7.85-6.08.86-.86,1.69-1.3,2.56-1.3.99,0,1.91.78,2.64,2.3l3.34,11.32c.09.09.13.17.17.3.04.13.09.3.09.43h0Zm121.32-53.05c0,2.39-.82,4.42-2.51,6.21-1.69,1.78-3.73,2.69-6.12,2.69h-67.06c.34,14.36,3.08,24.73,8.19,31.01,5.12,6.29,12.71,9.46,22.82,9.46,5.33,0,11.32-1.08,17.96-3.25,6.63-2.12,12.75-6.07,18.35-11.84.7-.69,1.47-.99,2.43-.99,1.69,0,2.7,1.04,3.04,3.17l1.39,15.87v.74c0,1.35-.56,2.21-1.64,2.56-6.12,3.81-12.36,6.89-18.79,9.28-6.46,2.39-14.05,3.56-22.77,3.56-21.69,0-37.26-5.9-46.76-17.74-9.5-11.8-14.23-27.07-14.23-45.81,0-12.54,1.74-22.99,5.16-31.32,3.43-8.32,7.9-14.83,13.45-19.43,5.56-4.64,11.59-7.81,18.05-9.58,6.51-1.78,13.19-2.69,20.13-2.69,13.05,0,23.2,2.78,30.45,8.37,7.24,5.59,12.15,12.41,14.66,20.43,2.56,8.03,3.81,16.31,3.81,24.85v4.47h0Zm-25.76-4.98c-.44-11.97-2.35-20.73-5.72-26.21-3.39-5.51-9.2-8.24-17.4-8.24-16.52,0-25.28,11.49-26.29,34.44h49.41Zm141.02,58.82c0,.73-.38,1.43-1.26,2.04-11.84,8.37-25.24,12.58-40.17,12.58-20.47,0-35.09-5.55-43.81-16.66-8.72-11.1-13.1-26.46-13.1-46.11,0-15.44,2.34-27.89,6.98-37.39,4.69-9.46,11.23-16.27,19.78-20.3,8.5-4.08,18.56-6.11,30.14-6.11,8.85,0,15.66.78,20.56,2.3,4.86,1.52,10.93,4.55,18.22,9.15.74.52,1.13,1.82,1.13,3.94l-2.91,16.66c-.34,1.78-1.17,2.64-2.56,2.64-1.08,0-2-.39-2.64-1.13-4.95-4.95-9.41-8.37-13.49-10.32-4.08-1.95-10.15-2.91-18.31-2.91-7.11,0-12.49,1.91-16.14,5.77-3.64,3.86-6.03,8.89-7.11,15.05-1.08,6.21-1.65,13.75-1.65,22.64,0,15.84,2,26.81,6.03,32.97,4.03,6.11,10.32,9.2,18.87,9.2,13.75,0,25.38-5.03,34.97-15.14.52-.47,1.26-.73,2.3-.73.74,0,1.43.3,2.04.86.56.61.86,1.26.86,1.91l1.26,18.3v.78h0Zm126.23,2.82c0,2.38-.86,4.42-2.56,6.21-1.69,1.78-3.73,2.69-6.08,2.69h-15.4c-2.25,0-4.25-.87-5.94-2.64-1.69-1.78-2.56-3.87-2.56-6.25v-79.16c0-6.07-1.04-10.2-3.12-12.23-2.08-2.08-5.47-3.12-10.24-3.12-5.59,0-10.32,1.65-14.18,4.95-3.86,3.29-6.73,7.29-8.63,12.01-1.91,4.69-2.87,9.07-2.87,13.11v64.46c0,2.38-.87,4.47-2.56,6.25-1.69,1.78-3.73,2.64-6.07,2.64h-15.4c-2.26,0-4.25-.91-5.94-2.69-1.69-1.78-2.56-3.82-2.56-6.21V57.82c0-2.3.87-4.38,2.56-6.25,1.69-1.87,3.68-2.78,5.94-2.78h14.88c2.3,0,4.29.91,5.99,2.69,1.69,1.78,2.56,3.91,2.56,6.34v73.35c4.64-7.76,9.8-13.66,15.44-17.78,5.6-4.08,13.06-6.11,22.3-6.11,13.54,0,22.69,3.07,27.38,9.28,4.73,6.16,7.07,14.41,7.07,24.64v79.29Z"/>
  <g>
    <path class="cls-3" d="m1236.74,43.32h8.75c2.49,0,4.19.45,5.1,1.36.9.92,1.37,2.73,1.41,5.46l.06,3.98c.02,1.27.15,2.5.37,3.7.12.58.32,1.35.59,2.3h9.88v-1.08c-.87-.53-1.42-1.34-1.65-2.45-.16-.7-.23-2.03-.23-3.98v-2.87c0-3.01-.42-5.24-1.24-6.7-.82-1.47-2.22-2.6-4.19-3.39,2.36-.81,4.06-2.2,5.08-4.17,1.04-1.97,1.55-3.97,1.55-6,0-1.69-.27-3.19-.8-4.5-.52-1.32-1.25-2.53-2.15-3.61-1.1-1.31-2.44-2.31-4.02-2.99-1.57-.68-3.83-1.04-6.76-1.1h-20.49v42.85h8.75v-16.8h0Zm0-18.61h9.89c1.84,0,3.22.25,4.14.76,1.64.88,2.45,2.63,2.45,5.23,0,2.41-.84,4.02-2.53,4.83-.96.46-2.4.69-4.31.69h-9.63v-11.51Z"/>
    <path class="cls-3" d="m1245.44,77.54c21.38,0,38.78-17.39,38.78-38.77S1266.82,0,1245.44,0s-38.77,17.39-38.77,38.77,17.4,38.77,38.77,38.77h0Zm0-71.98c18.32,0,33.22,14.89,33.22,33.21s-14.89,33.21-33.22,33.21-33.21-14.9-33.21-33.21,14.89-33.21,33.21-33.21Z"/>
  </g>
  <g>
    <path class="cls-2" d="m1300.54,202.38c0,2.98-.7,5.55-2.08,7.7s-3.37,3.8-5.96,4.95c-2.58,1.15-5.67,1.72-9.24,1.72-1.75,0-3.42-.1-5.01-.31-1.6-.2-3.09-.5-4.51-.9-1.4-.4-2.69-.89-3.84-1.46v-7.77c1.93.89,4.11,1.7,6.51,2.43,2.4.72,4.84,1.08,7.34,1.08,2.02,0,3.71-.28,5.06-.84,1.34-.56,2.34-1.37,3-2.41.65-1.04.98-2.26.98-3.65,0-1.49-.38-2.75-1.15-3.79-.77-1.02-1.92-1.97-3.46-2.83-1.53-.86-3.46-1.79-5.78-2.77-1.57-.67-3.07-1.42-4.5-2.27-1.43-.84-2.7-1.85-3.82-3-1.11-1.14-1.99-2.49-2.63-4.07-.65-1.57-.96-3.42-.96-5.56,0-2.84.65-5.26,1.94-7.29,1.3-2.01,3.13-3.56,5.5-4.64,2.37-1.08,5.14-1.61,8.3-1.61,2.51,0,4.87.27,7.09.83,2.21.55,4.39,1.33,6.53,2.34l-2.49,6.63c-1.96-.84-3.87-1.52-5.71-2.03-1.85-.5-3.73-.75-5.65-.75-1.66,0-3.07.26-4.22.79-1.16.53-2.04,1.27-2.64,2.22-.6.95-.89,2.08-.89,3.38,0,1.47.34,2.7,1.03,3.7.69.99,1.75,1.91,3.2,2.73,1.45.83,3.33,1.74,5.62,2.75,2.64,1.15,4.88,2.35,6.73,3.6,1.85,1.27,3.26,2.77,4.24,4.53.98,1.75,1.47,3.95,1.47,6.58Z"/>
    <path class="cls-2" d="m1323.18,216.06v-50.26h7.86v50.26h-7.86Z"/>
    <path class="cls-2" d="m1397,216.06h-9.66l-23.44-40.11h-.29c.09,1.35.18,2.78.25,4.29.08,1.51.15,3.07.2,4.67.06,1.6.11,3.23.15,4.88v26.26h-7.13v-50.26h9.59l23.41,39.85h.23c-.04-1.18-.1-2.51-.16-4.03-.07-1.51-.13-3.07-.19-4.69-.05-1.61-.09-3.18-.11-4.69v-26.43h7.17v50.26Z"/>
    <path class="cls-2" d="m1443.38,172.1c-2.29,0-4.34.43-6.14,1.3-1.8.87-3.32,2.13-4.57,3.77-1.25,1.64-2.19,3.61-2.85,5.94-.66,2.33-.98,4.95-.98,7.86,0,3.9.52,7.25,1.57,10.06s2.64,4.96,4.78,6.46c2.13,1.5,4.84,2.25,8.11,2.25,2.03,0,4.01-.21,5.93-.62,1.92-.41,3.9-.97,5.95-1.68v7.01c-1.93.8-3.9,1.38-5.89,1.75-1.98.36-4.27.55-6.88.55-4.88,0-8.94-1.06-12.16-3.2-3.22-2.12-5.62-5.13-7.2-9-1.59-3.88-2.38-8.42-2.38-13.61,0-3.81.5-7.29,1.5-10.45s2.47-5.9,4.39-8.2c1.91-2.31,4.29-4.09,7.12-5.33,2.83-1.25,6.06-1.87,9.7-1.87,2.41,0,4.76.27,7.09.83,2.33.56,4.48,1.37,6.46,2.39l-2.75,6.82c-1.66-.83-3.39-1.54-5.21-2.14-1.81-.59-3.68-.88-5.63-.88Z"/>
    <path class="cls-2" d="m1505.99,216.06h-27.11v-50.26h27.11v6.94h-19.25v13.65h18.04v6.9h-18.04v15.78h19.25v6.97Z"/>
    <path class="cls-2" d="m1589.69,216.06h-32.42v-6.09l12.41-13.2c2.4-2.56,4.37-4.78,5.92-6.65,1.55-1.87,2.7-3.63,3.46-5.31.76-1.67,1.13-3.49,1.13-5.46,0-2.43-.67-4.27-1.99-5.52-1.34-1.25-3.09-1.87-5.27-1.87s-3.99.42-5.75,1.29c-1.76.85-3.57,2.07-5.45,3.66l-4.22-5.33c1.33-1.19,2.75-2.28,4.27-3.27,1.51-.98,3.21-1.77,5.09-2.35,1.88-.59,4.02-.87,6.41-.87,3.03,0,5.66.56,7.87,1.7,2.2,1.13,3.9,2.71,5.09,4.72s1.79,4.36,1.79,7.05-.52,5.2-1.54,7.48c-1.03,2.3-2.48,4.56-4.39,6.8-1.9,2.23-4.15,4.66-6.78,7.27l-8.28,8.49v.38h22.66v7.08Z"/>
    <path class="cls-2" d="m1641.44,190.9c0,4.06-.3,7.68-.9,10.88-.6,3.19-1.54,5.9-2.83,8.13-1.3,2.22-2.98,3.91-5.05,5.09-2.07,1.16-4.58,1.75-7.53,1.75-3.68,0-6.73-1.02-9.13-3.07-2.4-2.05-4.17-5.01-5.33-8.87-1.16-3.86-1.74-8.5-1.74-13.91s.53-10.05,1.59-13.91c1.06-3.86,2.78-6.82,5.16-8.88,2.38-2.06,5.53-3.1,9.46-3.1,3.71,0,6.78,1.03,9.19,3.08,2.41,2.05,4.19,5.01,5.36,8.87,1.17,3.86,1.76,8.51,1.76,13.94Zm-24.76,0c0,4.24.27,7.78.81,10.63.54,2.84,1.42,4.96,2.67,6.37,1.24,1.4,2.9,2.11,4.97,2.11s3.74-.7,4.98-2.1c1.25-1.39,2.15-3.52,2.7-6.35.56-2.84.83-6.39.83-10.66s-.27-7.75-.82-10.59c-.55-2.84-1.44-4.98-2.68-6.41-1.25-1.43-2.92-2.15-5.02-2.15s-3.75.72-4.99,2.15c-1.23,1.43-2.11,3.58-2.65,6.41-.53,2.84-.81,6.37-.81,10.59Z"/>
    <path class="cls-2" d="m1693.19,190.9c0,4.06-.3,7.68-.9,10.88-.6,3.19-1.54,5.9-2.83,8.13-1.3,2.22-2.98,3.91-5.05,5.09-2.07,1.16-4.58,1.75-7.53,1.75-3.68,0-6.73-1.02-9.13-3.07-2.4-2.05-4.17-5.01-5.33-8.87-1.16-3.86-1.74-8.5-1.74-13.91s.53-10.05,1.59-13.91c1.06-3.86,2.78-6.82,5.16-8.88,2.38-2.06,5.53-3.1,9.46-3.1,3.71,0,6.78,1.03,9.19,3.08,2.41,2.05,4.19,5.01,5.36,8.87,1.17,3.86,1.76,8.51,1.76,13.94Zm-24.76,0c0,4.24.27,7.78.81,10.63.54,2.84,1.42,4.96,2.67,6.37,1.24,1.4,2.9,2.11,4.97,2.11s3.74-.7,4.98-2.1c1.25-1.39,2.15-3.52,2.7-6.35.56-2.84.83-6.39.83-10.66s-.27-7.75-.81-10.59c-.55-2.84-1.44-4.98-2.68-6.41-1.25-1.43-2.92-2.15-5.02-2.15s-3.75.72-4.99,2.15c-1.23,1.43-2.11,3.58-2.65,6.41-.53,2.84-.81,6.37-.81,10.59Z"/>
    <path class="cls-2" d="m1712.59,194.65c0-2.97.2-5.87.6-8.74.4-2.86,1.1-5.54,2.08-8.03.98-2.5,2.34-4.7,4.08-6.6,1.74-1.91,3.92-3.4,6.56-4.49,2.64-1.09,5.82-1.64,9.53-1.64.96,0,2.04.05,3.24.14,1.21.1,2.2.25,2.99.45v6.7c-.85-.25-1.79-.44-2.8-.58-1.02-.14-2.02-.21-3.03-.21-4.02,0-7.14.8-9.39,2.39-2.25,1.59-3.86,3.77-4.81,6.53-.96,2.76-1.52,5.92-1.67,9.47h.39c.65-1.14,1.47-2.16,2.46-3.05s2.18-1.61,3.59-2.15c1.42-.54,3.07-.81,4.95-.81,2.79,0,5.23.61,7.3,1.84s3.67,3,4.79,5.31c1.13,2.32,1.69,5.13,1.69,8.43,0,3.55-.64,6.61-1.92,9.17-1.28,2.56-3.08,4.54-5.43,5.91-2.35,1.37-5.14,2.06-8.37,2.06-2.38,0-4.59-.46-6.63-1.37-2.04-.91-3.83-2.29-5.35-4.13-1.53-1.84-2.72-4.13-3.57-6.89-.85-2.76-1.28-5.99-1.28-9.7Zm16.7,15.43c2.49,0,4.49-.85,6-2.56,1.52-1.71,2.28-4.32,2.28-7.86,0-2.86-.67-5.13-2.01-6.8-1.35-1.68-3.36-2.51-6.04-2.51-1.84,0-3.44.41-4.81,1.24-1.38.82-2.44,1.87-3.19,3.12-.76,1.27-1.13,2.55-1.13,3.85s.19,2.67.56,4.03c.36,1.36.92,2.59,1.67,3.73.74,1.13,1.67,2.04,2.78,2.73,1.11.69,2.42,1.03,3.9,1.03Z"/>
  </g>
  <line class="cls-1" x1="1794.9" y1="193.29" x2="1956" y2="193.29"/>
  <path class="cls-3" d="m761.41,310.82c-1.8,0-3.34-.55-4.62-1.65-1.28-1.1-1.92-2.68-1.92-4.71,0-1.82.65-3.33,1.96-4.51,1.31-1.19,2.84-1.78,4.58-1.78s3.17.53,4.46,1.6c1.3,1.09,1.95,2.65,1.95,4.69s-.63,3.56-1.9,4.67c-1.27,1.12-2.76,1.69-4.51,1.69h0Z"/>
  <path class="cls-3" d="m1098.08,312.24c-1.8,0-3.34-.55-4.62-1.65-1.28-1.1-1.92-2.68-1.92-4.71,0-1.82.65-3.33,1.97-4.51,1.31-1.18,2.84-1.78,4.58-1.78s3.17.53,4.46,1.61c1.3,1.09,1.95,2.64,1.95,4.69s-.63,3.55-1.9,4.67c-1.27,1.12-2.76,1.69-4.51,1.69h0Z"/>
  <g>
    <path class="cls-3" d="m405.21,359.87v-52.13c0-2.71.61-4.73,1.85-6.09,1.24-1.36,2.84-2.03,4.79-2.03s3.64.66,4.89,2c1.25,1.34,1.88,3.38,1.88,6.12v52.13c0,2.74-.63,4.78-1.88,6.13-1.25,1.36-2.88,2.03-4.89,2.03s-3.51-.68-4.76-2.05c-1.25-1.37-1.88-3.4-1.88-6.12h0Z"/>
    <path class="cls-3" d="m443.92,324.73v1.5c2.17-2.87,4.55-4.96,7.12-6.3,2.57-1.34,5.53-2,8.87-2s6.15.71,8.72,2.13c2.56,1.4,4.47,3.4,5.73,5.99.81,1.51,1.34,3.13,1.59,4.88.23,1.74.35,3.96.35,6.67v22.95c0,2.47-.57,4.33-1.69,5.59-1.13,1.26-2.61,1.89-4.41,1.89s-3.33-.65-4.48-1.94c-1.14-1.29-1.71-3.14-1.71-5.55v-20.56c0-4.05-.57-7.17-1.7-9.32-1.12-2.14-3.38-3.22-6.75-3.22-2.19,0-4.19.65-6.01,1.96-1.8,1.31-3.13,3.11-3.96,5.41-.6,1.83-.91,5.25-.91,10.3v15.44c0,2.5-.58,4.36-1.74,5.61-1.16,1.25-2.65,1.88-4.47,1.88s-3.24-.65-4.38-1.94c-1.14-1.29-1.71-3.14-1.71-5.55v-35.63c0-2.34.51-4.1,1.53-5.25,1.03-1.16,2.42-1.74,4.19-1.74,1.08,0,2.06.26,2.93.77.88.51,1.57,1.28,2.1,2.3.52,1.03.78,2.28.78,3.75h0Z"/>
    <path class="cls-3" d="m489.29,319.03h1.36v-7.41c0-1.99.05-3.55.16-4.67.11-1.14.4-2.11.88-2.92.48-.84,1.17-1.54,2.08-2.06.9-.52,1.9-.79,3.02-.79,1.55,0,2.96.59,4.22,1.76.85.78,1.37,1.74,1.6,2.88.23,1.13.34,2.73.34,4.81v8.4h4.51c1.74,0,3.08.42,3.99,1.23.93.83,1.39,1.89,1.39,3.17,0,1.66-.66,2.82-1.97,3.48-1.31.67-3.17.99-5.62.99h-2.3v22.65c0,1.93.06,3.42.2,4.46.14,1.03.49,1.88,1.08,2.53.6.65,1.56.97,2.88.97.71,0,1.69-.12,2.93-.39,1.23-.25,2.2-.38,2.88-.38,1,0,1.89.4,2.7,1.2.8.8,1.19,1.79,1.19,2.96,0,1.99-1.08,3.5-3.23,4.55-2.17,1.06-5.29,1.59-9.35,1.59-3.85,0-6.77-.65-8.74-1.94-1.99-1.29-3.28-3.08-3.9-5.38-.62-2.28-.93-5.34-.93-9.15v-23.65h-1.62c-1.79,0-3.15-.42-4.07-1.26-.94-.83-1.4-1.91-1.4-3.2s.49-2.34,1.46-3.17c.99-.81,2.41-1.23,4.27-1.23h0Z"/>
    <path class="cls-3" d="m560.9,351.13c-1.17,0-2.07.28-2.7.82-1.54,1.45-2.79,2.59-3.76,3.43-.96.85-2,1.64-3.16,2.37-1.14.74-2.31,1.28-3.54,1.62-1.22.35-2.56.53-4.04.53-2.19,0-4.21-.54-6.03-1.63-1.82-1.08-3.28-2.68-4.38-4.82-1.09-2.14-1.66-4.61-1.69-7.42h24.12c3.22,0,5.72-.46,7.49-1.37,1.77-.92,2.67-2.94,2.67-6.04,0-3.35-.86-6.63-2.57-9.85-1.72-3.24-4.3-5.86-7.75-7.89-3.43-2.03-7.57-3.05-12.39-3.05-3.7,0-7.08.6-10.11,1.79-3.03,1.19-5.59,2.9-7.67,5.12-2.06,2.24-3.65,4.9-4.73,8.01-1.08,3.11-1.62,6.5-1.62,10.14,0,7.73,2.19,13.85,6.58,18.37,4.39,4.52,10.54,6.78,18.46,6.78,3.45,0,6.52-.45,9.18-1.36,2.67-.89,4.87-2.03,6.62-3.41,1.77-1.36,3.08-2.79,3.96-4.27.86-1.49,1.31-2.79,1.31-3.9,0-1.26-.4-2.25-1.17-2.93-.78-.69-1.82-1.05-3.08-1.05Zm-25.7-21.52c1.97-2.11,4.48-3.17,7.57-3.17s5.81,1.05,7.78,3.13c1.97,2.1,3.11,5.24,3.4,9.45h-22.34c.42-4.15,1.62-7.27,3.59-9.4Z"/>
    <path class="cls-3" d="m619.19,320.27c-.79-1.56-2.37-2.34-4.74-2.34-1.67,0-3.02.58-4.07,1.77-1.05,1.17-1.59,2.84-1.59,4.98v1.68c-2.19-2.87-4.56-4.98-7.12-6.32-2.56-1.34-5.59-2.02-9.07-2.02-2.91,0-5.59.52-8.03,1.56-2.45,1.05-4.59,2.59-6.45,4.64-1.86,2.03-3.3,4.56-4.31,7.53-1,2.97-1.51,6.32-1.51,10.03,0,4.96.83,9.34,2.48,13.13,1.65,3.81,4.02,6.75,7.1,8.86,3.08,2.11,6.69,3.16,10.82,3.16,3.42,0,6.38-.69,8.86-2.08,2.48-1.37,4.67-3.39,6.57-6.04-.05,4.04-.14,6.95-.27,8.77-.12,1.82-.54,3.53-1.25,5.11-.69,1.6-1.93,2.84-3.7,3.73-1.76.88-4.22,1.33-7.41,1.33-1.56,0-2.94-.14-4.15-.43-1.2-.28-2.23-.73-3.09-1.31-.85-.59-1.63-1.29-2.34-2.11-.7-.83-1.39-1.65-2.05-2.45-1.36-1.61-2.94-2.39-4.75-2.39-1.45,0-2.68.48-3.71,1.42-1.02.95-1.53,2.17-1.53,3.68,0,1.99.89,3.91,2.7,5.79,1.82,1.88,4.39,3.42,7.72,4.61,3.35,1.19,7.13,1.79,11.39,1.79,4.62,0,8.51-.46,11.62-1.4,3.11-.93,5.64-2.36,7.57-4.28,1.92-1.93,3.31-4.36,4.19-7.32.88-2.94,1.31-6.46,1.31-10.56v-35.8c0-2.93-.39-5.16-1.17-6.72Zm-12.56,30.9c-1.14,2.2-2.62,3.87-4.44,4.96-1.82,1.1-3.76,1.65-5.79,1.65-3.47,0-6.27-1.28-8.46-3.83-2.17-2.56-3.26-6.34-3.26-11.33s1.06-8.74,3.17-11.42c2.12-2.68,4.94-4.02,8.46-4.02s6.52,1.4,8.72,4.19c2.2,2.8,3.31,6.72,3.31,11.74,0,3.16-.57,5.84-1.71,8.06Z"/>
    <path class="cls-3" d="m643.83,350.25v10.29c0,2.5-.58,4.36-1.76,5.61-1.17,1.25-2.65,1.88-4.45,1.88s-3.24-.63-4.38-1.89c-1.14-1.26-1.71-3.13-1.71-5.59v-34.32c0-5.53,2-8.31,5.99-8.31,2.03,0,3.51.64,4.41,1.94.91,1.29,1.4,3.22,1.49,5.75,1.47-2.53,2.97-4.46,4.53-5.75,1.56-1.3,3.62-1.94,6.21-1.94s5.1.64,7.53,1.94c2.44,1.29,3.65,3.02,3.65,5.16,0,1.51-.51,2.74-1.56,3.73-1.03.99-2.16,1.46-3.36,1.46-.45,0-1.54-.28-3.27-.83-1.74-.56-3.27-.83-4.59-.83-1.8,0-3.27.48-4.42,1.42-1.14.95-2.03,2.36-2.66,4.22-.63,1.86-1.07,4.08-1.31,6.65-.23,2.57-.36,5.7-.36,9.4h0Z"/>
    <path class="cls-3" d="m713.33,358.19c-.77-2.51-1.16-4.93-1.16-7.24.03-2.47.05-4.72.06-6.73.02-2.02.03-4.47.03-7.37,0-4.58-.65-8.24-1.93-11.02s-3.47-4.79-6.56-6.07c-3.1-1.28-7.37-1.93-12.78-1.93-4.86,0-8.91.66-12.16,1.99-3.25,1.32-5.64,3.01-7.18,5.05-1.52,2.05-2.29,4.16-2.29,6.34,0,1.39.51,2.53,1.51,3.4,1,.89,2.21,1.34,3.59,1.34,1.53,0,2.53-.28,3.01-.83.46-.57,1.26-1.71,2.39-3.45,1.12-1.76,2.48-3.06,4.07-3.93,1.57-.88,3.93-1.31,7.06-1.31,3.65,0,6.04.76,7.21,2.28,1.16,1.51,1.81,3.9,1.96,7.15-2.59.76-4.99,1.39-7.2,1.91-2.21.54-4.87,1.11-7.97,1.74-3.09.63-5.04,1.03-5.81,1.22-3.75.81-6.69,2.4-8.83,4.79-2.14,2.37-3.2,5.24-3.2,8.62,0,2.49.65,4.81,1.94,6.95,1.29,2.14,3.14,3.82,5.53,5.07,2.39,1.25,5.18,1.88,8.34,1.88,3.45,0,6.58-.57,9.37-1.73,2.77-1.15,5.66-2.88,8.64-5.19,1.39,2.25,2.7,3.96,3.93,5.15,1.23,1.18,2.48,1.77,3.74,1.77,1.51,0,2.85-.52,4.05-1.55,1.19-1.03,1.77-2.19,1.77-3.45,0-.72-.37-2.34-1.14-4.84Zm-13.17-13.17c0,4.28-.55,7.36-1.67,9.23-.97,1.69-2.48,3.07-4.54,4.14-2.05,1.06-4.3,1.61-6.73,1.61-2.3,0-4.15-.67-5.55-1.97-1.41-1.31-2.13-2.9-2.13-4.76s.6-3.22,1.8-4.24c1.2-1,2.47-1.68,3.79-2.03,1.33-.34,3.71-.89,7.15-1.63,3.45-.72,6.07-1.43,7.88-2.1v1.76Z"/>
    <path class="cls-3" d="m723.15,319.03h1.36v-7.41c0-1.99.05-3.55.16-4.67.11-1.14.4-2.11.88-2.92.48-.84,1.17-1.54,2.08-2.06.89-.52,1.9-.79,3.02-.79,1.56,0,2.96.59,4.22,1.76.85.78,1.37,1.74,1.61,2.88.23,1.13.34,2.73.34,4.81v8.4h4.52c1.74,0,3.08.42,3.99,1.23.92.83,1.39,1.89,1.39,3.17,0,1.66-.67,2.82-1.97,3.48-1.31.67-3.17.99-5.62.99h-2.3v22.65c0,1.93.06,3.42.2,4.46.14,1.03.49,1.88,1.08,2.53.6.65,1.56.97,2.88.97.71,0,1.7-.12,2.93-.39,1.23-.25,2.2-.38,2.88-.38,1,0,1.9.4,2.7,1.2.8.8,1.19,1.79,1.19,2.96,0,1.99-1.08,3.5-3.24,4.55-2.17,1.06-5.29,1.59-9.35,1.59-3.85,0-6.77-.65-8.74-1.94-1.99-1.29-3.28-3.08-3.9-5.38-.61-2.28-.93-5.34-.93-9.15v-23.65h-1.62c-1.79,0-3.15-.42-4.07-1.26-.94-.83-1.4-1.91-1.4-3.2s.49-2.34,1.46-3.17c.99-.81,2.4-1.23,4.27-1.23h0Z"/>
    <path class="cls-3" d="m767.5,324.92v35.63c0,2.47-.58,4.33-1.76,5.59-1.17,1.26-2.65,1.89-4.46,1.89s-3.26-.65-4.39-1.94c-1.13-1.29-1.69-3.14-1.69-5.55v-35.26c0-2.45.57-4.28,1.69-5.52,1.13-1.23,2.59-1.85,4.39-1.85s3.29.61,4.46,1.85c1.17,1.23,1.76,2.96,1.76,5.15h0Z"/>
    <path class="cls-3" d="m791.41,324.73v1.5c2.17-2.87,4.55-4.96,7.12-6.3,2.57-1.34,5.53-2,8.88-2s6.15.71,8.72,2.13c2.56,1.4,4.47,3.4,5.73,5.99.82,1.51,1.34,3.13,1.59,4.88.23,1.74.36,3.96.36,6.67v22.95c0,2.47-.57,4.33-1.69,5.59-1.13,1.26-2.61,1.89-4.41,1.89s-3.33-.65-4.48-1.94c-1.14-1.29-1.71-3.14-1.71-5.55v-20.56c0-4.05-.57-7.17-1.7-9.32-1.12-2.14-3.38-3.22-6.75-3.22-2.19,0-4.19.65-6.01,1.96-1.8,1.31-3.13,3.11-3.96,5.41-.6,1.83-.91,5.25-.91,10.3v15.44c0,2.5-.59,4.36-1.74,5.61-1.16,1.25-2.65,1.88-4.47,1.88s-3.24-.65-4.38-1.94c-1.14-1.29-1.71-3.14-1.71-5.55v-35.63c0-2.34.51-4.1,1.52-5.25,1.04-1.16,2.42-1.74,4.19-1.74,1.08,0,2.07.26,2.93.77.88.51,1.57,1.28,2.1,2.3.52,1.03.78,2.28.78,3.75h0Z"/>
    <path class="cls-3" d="m880.23,320.27c-.78-1.56-2.37-2.34-4.74-2.34-1.67,0-3.02.58-4.07,1.77-1.05,1.17-1.59,2.84-1.59,4.98v1.68c-2.19-2.87-4.56-4.98-7.12-6.32-2.56-1.34-5.59-2.02-9.08-2.02-2.91,0-5.59.52-8.03,1.56-2.45,1.05-4.59,2.59-6.46,4.64-1.86,2.03-3.3,4.56-4.31,7.53-1,2.97-1.51,6.32-1.51,10.03,0,4.96.83,9.34,2.48,13.13,1.65,3.81,4.02,6.75,7.1,8.86,3.08,2.11,6.69,3.16,10.82,3.16,3.42,0,6.38-.69,8.86-2.08,2.48-1.37,4.67-3.39,6.57-6.04-.05,4.04-.14,6.95-.27,8.77-.12,1.82-.54,3.53-1.25,5.11-.69,1.6-1.92,2.84-3.7,3.73-1.76.88-4.22,1.33-7.41,1.33-1.56,0-2.94-.14-4.15-.43-1.2-.28-2.23-.73-3.09-1.31-.85-.59-1.63-1.29-2.34-2.11-.69-.83-1.39-1.65-2.05-2.45-1.36-1.61-2.94-2.39-4.75-2.39-1.45,0-2.68.48-3.71,1.42-1.02.95-1.53,2.17-1.53,3.68,0,1.99.89,3.91,2.7,5.79,1.82,1.88,4.39,3.42,7.72,4.61,3.34,1.19,7.13,1.79,11.39,1.79,4.62,0,8.51-.46,11.62-1.4,3.11-.93,5.64-2.36,7.57-4.28,1.92-1.93,3.31-4.36,4.19-7.32.88-2.94,1.31-6.46,1.31-10.56v-35.8c0-2.93-.39-5.16-1.17-6.72Zm-12.56,30.9c-1.14,2.2-2.62,3.87-4.44,4.96-1.82,1.1-3.76,1.65-5.79,1.65-3.47,0-6.27-1.28-8.46-3.83-2.17-2.56-3.26-6.34-3.26-11.33s1.06-8.74,3.17-11.42c2.12-2.68,4.94-4.02,8.46-4.02s6.52,1.4,8.72,4.19c2.2,2.8,3.31,6.72,3.31,11.74,0,3.16-.57,5.84-1.71,8.06Z"/>
    <path class="cls-3" d="m962.11,330.74c6.63-3.07,9.94-7.92,9.94-14.55,0-1.92-.32-3.75-.96-5.48-.63-1.73-1.54-3.3-2.74-4.73-1.22-1.43-2.59-2.62-4.16-3.55-1.84-1.13-3.91-1.86-6.24-2.27-2.31-.38-5.05-.58-8.21-.58h-21.45c-2.87,0-4.93.65-6.21,1.92-1.28,1.28-1.92,3.38-1.92,6.29v49.77c0,2.85.63,4.94,1.88,6.26,1.25,1.31,3.33,1.96,6.26,1.96h20.23c3.48,0,6.55-.17,9.17-.52,2.62-.34,4.93-.94,6.95-1.79,3.22-1.4,5.78-3.59,7.67-6.57,1.9-2.96,2.85-6.3,2.85-10,0-8.01-4.34-13.39-13.05-16.17Zm-28.55-21.08h10.89c4.87,0,8.51.56,10.88,1.65,2.39,1.09,3.58,3.31,3.58,6.66,0,1.56-.37,2.97-1.13,4.24-.97,1.77-2.36,2.97-4.19,3.61-1.82.63-4.39.95-7.74.95h-12.3v-17.1Zm14.41,46.05h-14.41v-19.32h13.96c4.67,0,8.18.76,10.53,2.25,2.36,1.51,3.53,3.93,3.53,7.28,0,6.53-4.53,9.8-13.61,9.8Z"/>
    <path class="cls-3" d="m1017.88,359.94v-1.59c-1.48,1.87-3.02,3.44-4.65,4.7-1.62,1.26-3.39,2.2-5.32,2.82-1.92.61-4.11.93-6.58.93-2.99,0-5.65-.62-8.01-1.85-2.36-1.23-4.19-2.93-5.49-5.1-1.52-2.62-2.3-6.38-2.3-11.3v-24.41c0-2.48.55-4.31,1.66-5.53,1.11-1.22,2.59-1.83,4.42-1.83s3.36.62,4.5,1.85c1.14,1.23,1.71,3.07,1.71,5.52v19.72c0,2.85.25,5.26.72,7.2.48,1.94,1.34,3.46,2.59,4.56,1.25,1.09,2.94,1.65,5.09,1.65s4.04-.62,5.87-1.85c1.83-1.23,3.17-2.85,4.02-4.84.69-1.74,1.03-5.56,1.03-11.46v-14.98c0-2.45.57-4.28,1.71-5.52,1.16-1.23,2.65-1.85,4.48-1.85s3.32.62,4.42,1.83c1.13,1.22,1.68,3.05,1.68,5.53v35.71c0,2.34-.54,4.1-1.6,5.28-1.08,1.17-2.45,1.76-4.14,1.76s-3.09-.62-4.18-1.83c-1.1-1.22-1.65-2.93-1.65-5.12h0Z"/>
    <path class="cls-3" d="m1081.41,350.81c0,3.39-.83,6.3-2.48,8.72-1.65,2.42-4.1,4.25-7.33,5.5-3.24,1.25-7.17,1.86-11.81,1.86s-8.21-.68-11.37-2.03c-3.16-1.34-5.49-3.03-7-5.07-1.5-2.02-2.25-4.05-2.25-6.1,0-1.36.48-2.51,1.45-3.47.96-.97,2.17-1.45,3.65-1.45,1.3,0,2.28.32,2.97.96.7.63,1.36,1.51,1.99,2.67,1.26,2.19,2.77,3.84,4.53,4.91,1.76,1.1,4.16,1.63,7.19,1.63,2.47,0,4.49-.55,6.06-1.65,1.59-1.09,2.37-2.36,2.37-3.77,0-2.17-.82-3.75-2.45-4.75-1.65-.99-4.35-1.94-8.11-2.85-4.24-1.05-7.69-2.16-10.35-3.31-2.65-1.16-4.78-2.7-6.38-4.59-1.59-1.9-2.39-4.24-2.39-7,0-2.48.74-4.81,2.2-7.01,1.48-2.2,3.65-3.94,6.53-5.26,2.87-1.31,6.33-1.97,10.4-1.97,3.19,0,6.06.33,8.59.99,2.54.66,4.67,1.56,6.37,2.67,1.71,1.12,3,2.35,3.88,3.71.9,1.36,1.34,2.67,1.34,3.98,0,1.4-.48,2.57-1.43,3.47-.94.91-2.3,1.35-4.04,1.35-1.26,0-2.34-.35-3.24-1.08-.88-.73-1.89-1.8-3.05-3.25-.93-1.2-2.02-2.17-3.28-2.9-1.26-.72-2.97-1.08-5.15-1.08s-4.06.48-5.55,1.42c-1.46.95-2.21,2.14-2.21,3.56,0,1.29.54,2.36,1.62,3.17,1.09.83,2.54,1.52,4.38,2.06,1.83.54,4.36,1.2,7.58,1.99,3.82.93,6.95,2.05,9.37,3.34,2.42,1.29,4.25,2.82,5.5,4.59,1.25,1.76,1.88,3.76,1.88,6.02h0Z"/>
    <path class="cls-3" d="m1104.16,323.78v35.63c0,2.46-.59,4.33-1.76,5.59-1.17,1.26-2.65,1.89-4.46,1.89s-3.26-.65-4.39-1.94c-1.13-1.29-1.7-3.14-1.7-5.55v-35.26c0-2.45.57-4.28,1.7-5.52,1.13-1.23,2.59-1.85,4.39-1.85s3.29.62,4.46,1.85c1.17,1.23,1.76,2.96,1.76,5.15h0Z"/>
    <path class="cls-3" d="m1128.08,323.59v1.5c2.17-2.87,4.54-4.96,7.12-6.3,2.57-1.34,5.53-2,8.88-2s6.15.71,8.72,2.13c2.56,1.4,4.47,3.4,5.73,5.99.81,1.51,1.34,3.13,1.59,4.89.23,1.74.35,3.96.35,6.67v22.95c0,2.46-.57,4.33-1.69,5.59-1.13,1.26-2.61,1.89-4.41,1.89s-3.33-.65-4.48-1.94c-1.14-1.29-1.71-3.14-1.71-5.55v-20.56c0-4.05-.57-7.17-1.7-9.32-1.13-2.14-3.38-3.22-6.75-3.22-2.19,0-4.19.65-6.01,1.96-1.8,1.31-3.13,3.11-3.96,5.41-.6,1.83-.91,5.26-.91,10.3v15.44c0,2.5-.58,4.36-1.74,5.61-1.16,1.25-2.65,1.88-4.47,1.88s-3.24-.65-4.38-1.94c-1.14-1.29-1.71-3.14-1.71-5.55v-35.63c0-2.34.51-4.1,1.52-5.25,1.03-1.16,2.42-1.74,4.19-1.74,1.08,0,2.07.26,2.93.77.88.51,1.57,1.28,2.1,2.3.52,1.03.78,2.28.78,3.74h0Z"/>
    <path class="cls-3" d="m1212.32,349.99c-1.17,0-2.07.28-2.7.82-1.54,1.45-2.79,2.59-3.76,3.44-.96.85-2,1.63-3.16,2.37-1.14.74-2.31,1.28-3.54,1.62-1.22.35-2.56.52-4.04.52-2.19,0-4.21-.54-6.03-1.63-1.82-1.08-3.28-2.68-4.38-4.82-1.1-2.14-1.66-4.61-1.7-7.41h24.12c3.22,0,5.72-.46,7.49-1.37,1.77-.93,2.67-2.94,2.67-6.04,0-3.34-.86-6.62-2.57-9.85-1.72-3.24-4.3-5.86-7.75-7.89-3.43-2.03-7.57-3.05-12.39-3.05-3.7,0-7.07.6-10.11,1.79-3.03,1.19-5.59,2.9-7.67,5.11-2.07,2.24-3.66,4.9-4.73,8.01-1.08,3.11-1.62,6.5-1.62,10.14,0,7.74,2.19,13.85,6.58,18.37,4.39,4.52,10.54,6.78,18.46,6.78,3.45,0,6.52-.45,9.18-1.36,2.67-.89,4.87-2.03,6.63-3.4,1.77-1.36,3.08-2.79,3.96-4.27.87-1.49,1.31-2.79,1.31-3.9,0-1.26-.4-2.25-1.17-2.93-.79-.69-1.82-1.05-3.08-1.05Zm-25.7-21.52c1.97-2.11,4.48-3.17,7.57-3.17s5.81,1.05,7.78,3.13c1.97,2.1,3.11,5.24,3.4,9.44h-22.35c.42-4.15,1.62-7.27,3.59-9.4Z"/>
    <path class="cls-3" d="m1267.36,350.81c0,3.39-.83,6.3-2.48,8.72-1.65,2.42-4.1,4.25-7.33,5.5-3.24,1.25-7.17,1.86-11.81,1.86s-8.21-.68-11.37-2.03c-3.16-1.34-5.48-3.03-7-5.07-1.49-2.02-2.25-4.05-2.25-6.1,0-1.36.48-2.51,1.45-3.47.96-.97,2.17-1.45,3.65-1.45,1.3,0,2.28.32,2.97.96.7.63,1.36,1.51,1.99,2.67,1.26,2.19,2.77,3.84,4.53,4.91,1.76,1.1,4.16,1.63,7.19,1.63,2.47,0,4.49-.55,6.06-1.65,1.59-1.09,2.37-2.36,2.37-3.77,0-2.17-.82-3.75-2.45-4.75-1.65-.99-4.34-1.94-8.11-2.85-4.24-1.05-7.69-2.16-10.35-3.31-2.65-1.16-4.78-2.7-6.38-4.59-1.59-1.9-2.39-4.24-2.39-7,0-2.48.74-4.81,2.21-7.01,1.48-2.2,3.65-3.94,6.53-5.26,2.87-1.31,6.33-1.97,10.4-1.97,3.19,0,6.06.33,8.58.99,2.54.66,4.67,1.56,6.37,2.67,1.71,1.12,3,2.35,3.88,3.71.9,1.36,1.34,2.67,1.34,3.98,0,1.4-.48,2.57-1.43,3.47-.94.91-2.3,1.35-4.04,1.35-1.27,0-2.34-.35-3.24-1.08-.88-.73-1.89-1.8-3.05-3.25-.93-1.2-2.02-2.17-3.28-2.9-1.26-.72-2.97-1.08-5.15-1.08s-4.07.48-5.55,1.42c-1.47.95-2.21,2.14-2.21,3.56,0,1.29.54,2.36,1.62,3.17,1.09.83,2.54,1.52,4.38,2.06,1.84.54,4.36,1.2,7.58,1.99,3.82.93,6.95,2.05,9.37,3.34,2.42,1.29,4.25,2.82,5.5,4.59,1.25,1.76,1.88,3.76,1.88,6.02Z"/>
    <path class="cls-3" d="m1317.48,350.81c0,3.39-.83,6.3-2.48,8.72-1.65,2.42-4.1,4.25-7.33,5.5-3.24,1.25-7.17,1.86-11.81,1.86s-8.21-.68-11.37-2.03c-3.16-1.34-5.48-3.03-7-5.07-1.49-2.02-2.25-4.05-2.25-6.1,0-1.36.48-2.51,1.45-3.47.95-.97,2.17-1.45,3.65-1.45,1.3,0,2.28.32,2.97.96.7.63,1.36,1.51,1.99,2.67,1.26,2.19,2.77,3.84,4.53,4.91,1.76,1.1,4.16,1.63,7.19,1.63,2.47,0,4.49-.55,6.06-1.65,1.59-1.09,2.37-2.36,2.37-3.77,0-2.17-.81-3.75-2.45-4.75-1.65-.99-4.34-1.94-8.11-2.85-4.24-1.05-7.69-2.16-10.36-3.31-2.65-1.16-4.78-2.7-6.38-4.59-1.59-1.9-2.39-4.24-2.39-7,0-2.48.74-4.81,2.21-7.01,1.48-2.2,3.65-3.94,6.53-5.26,2.87-1.31,6.33-1.97,10.4-1.97,3.19,0,6.05.33,8.58.99,2.54.66,4.67,1.56,6.37,2.67,1.71,1.12,3,2.35,3.88,3.71.89,1.36,1.34,2.67,1.34,3.98,0,1.4-.48,2.57-1.43,3.47-.94.91-2.3,1.35-4.03,1.35-1.27,0-2.34-.35-3.24-1.08-.88-.73-1.89-1.8-3.05-3.25-.92-1.2-2.02-2.17-3.28-2.9-1.26-.72-2.97-1.08-5.15-1.08s-4.07.48-5.55,1.42c-1.47.95-2.21,2.14-2.21,3.56,0,1.29.54,2.36,1.62,3.17,1.09.83,2.54,1.52,4.38,2.06,1.84.54,4.36,1.2,7.58,1.99,3.82.93,6.95,2.05,9.37,3.34,2.42,1.29,4.25,2.82,5.5,4.59,1.25,1.76,1.88,3.76,1.88,6.02h0Zm41.5-37.15c0-2.81.74-5.37,2.19-7.66,1.46-2.3,3.61-4.13,6.44-5.49,2.84-1.36,6.17-2.03,9.99-2.03s7.07.71,9.84,2.13c2.76,1.4,4.84,3.26,6.21,5.55,1.37,2.28,2.05,4.67,2.05,7.14,0,3.38-1.11,6.3-3.34,8.8-2.23,2.49-5.52,5.04-9.86,7.63,1.51,1.79,2.91,3.45,4.21,5.01,1.3,1.57,2.54,3.04,3.76,4.38,1.2,1.36,2.3,2.51,3.3,3.48.45-.85,1.14-2.42,2.1-4.75.95-2.31,1.83-3.98,2.67-5.01.83-1.02,2-1.53,3.5-1.53s2.67.51,3.74,1.51c1.1,1,1.63,2.24,1.63,3.68,0,1.33-.46,3.19-1.4,5.61-.94,2.42-2.28,5.12-4.07,8.06,1.13.96,2.88,2.42,5.32,4.38,2.42,1.96,3.91,3.28,4.47,3.99s.83,1.65.83,2.82c0,1.56-.57,2.88-1.69,3.94-1.13,1.07-2.39,1.6-3.78,1.6s-2.77-.45-4.1-1.36c-1.32-.89-4.15-3.11-8.44-6.63-1.96,1.84-3.99,3.35-6.09,4.52-2.08,1.17-4.33,2.03-6.72,2.6-2.4.57-5.07.86-8.03.86-3.76,0-7.13-.55-10.14-1.65-2.99-1.09-5.49-2.57-7.47-4.44-1.99-1.87-3.47-3.95-4.42-6.21-.97-2.27-1.45-4.58-1.45-6.92s.35-4.33,1.08-6.21c.73-1.88,1.74-3.57,3.05-5.1,1.31-1.51,2.93-2.96,4.84-4.33,1.91-1.37,4.15-2.7,6.67-3.99-2.26-2.83-3.98-5.35-5.13-7.57-1.16-2.2-1.74-4.49-1.74-6.83h0Zm12.77,21.62c-3.06,1.77-5.36,3.55-6.87,5.32-1.53,1.77-2.28,3.88-2.28,6.32,0,1.39.28,2.71.83,3.98.56,1.26,1.37,2.44,2.44,3.51,1.08,1.09,2.31,1.91,3.73,2.48,1.42.57,2.9.86,4.47.86s3.02-.24,4.47-.72c1.44-.48,2.81-1.17,4.1-2.05,1.3-.89,2.64-1.99,4.02-3.31-2.68-2.47-5.08-4.92-7.23-7.33-2.13-2.42-4.69-5.44-7.68-9.05h0Zm4.61-12.37c3.07-1.96,5.29-3.61,6.66-4.95,1.37-1.33,2.05-2.94,2.05-4.84s-.68-3.44-2.05-4.7c-1.37-1.26-3.1-1.9-5.16-1.9s-3.82.65-5.21,1.94c-1.4,1.3-2.1,2.82-2.1,4.56,0,.9.27,1.87.79,2.92.53,1.03,1.17,2.06,1.96,3.08.78,1.03,1.8,2.33,3.07,3.88h0Zm111.89-12.22h-14.62v48.05c0,2.77-.62,4.82-1.87,6.16-1.23,1.34-2.84,2-4.79,2s-3.62-.68-4.87-2.03c-1.25-1.36-1.88-3.39-1.88-6.13v-48.05h-14.62c-2.3,0-3.99-.51-5.1-1.51-1.11-1.01-1.68-2.36-1.68-4.02s.59-3.07,1.74-4.07c1.16-1,2.84-1.49,5.04-1.49h42.65c2.33,0,4.04.51,5.18,1.54,1.13,1.03,1.7,2.37,1.7,4.02s-.59,3.01-1.73,4.02c-1.14,1-2.85,1.51-5.15,1.51h0Zm42.5,34.21c3.22,0,5.72-.46,7.49-1.37,1.77-.93,2.67-2.94,2.67-6.04,0-3.34-.86-6.63-2.57-9.85-1.72-3.24-4.3-5.86-7.75-7.89-3.43-2.03-7.57-3.05-12.39-3.05-3.7,0-7.07.6-10.11,1.79-3.03,1.19-5.59,2.9-7.67,5.11-2.07,2.24-3.65,4.9-4.73,8.01-1.08,3.11-1.62,6.5-1.62,10.14,0,7.74,2.19,13.85,6.58,18.37,4.39,4.52,10.54,6.78,18.46,6.78,3.45,0,6.52-.45,9.19-1.36,2.67-.89,4.87-2.03,6.63-3.4,1.77-1.36,3.08-2.79,3.96-4.27.86-1.49,1.31-2.79,1.31-3.9,0-1.26-.4-2.25-1.17-2.93-.78-.69-1.82-1.05-3.08-1.05-1.17,0-2.07.28-2.7.82-1.54,1.45-2.79,2.59-3.76,3.44-.96.85-2,1.63-3.16,2.37-1.14.74-2.31,1.28-3.54,1.62-1.22.35-2.56.52-4.04.52-2.19,0-4.21-.54-6.03-1.63-1.82-1.08-3.28-2.68-4.38-4.82-1.09-2.14-1.66-4.61-1.69-7.41h24.12Zm-24.12-7.03c.42-4.15,1.62-7.27,3.59-9.4,1.97-2.11,4.48-3.17,7.57-3.17s5.81,1.05,7.78,3.13c1.97,2.09,3.11,5.24,3.4,9.44h-22.35Zm88.89,13.79c0,1.52-.46,3.17-1.39,4.91-.91,1.74-2.31,3.4-4.19,4.98-1.88,1.57-4.25,2.85-7.12,3.81-2.85.97-6.07,1.45-9.66,1.45-7.61,0-13.56-2.22-17.83-6.66-4.29-4.44-6.43-10.38-6.43-17.86,0-5.06.99-9.52,2.94-13.41,1.96-3.88,4.79-6.89,8.49-9,3.72-2.13,8.14-3.19,13.28-3.19,3.19,0,6.12.46,8.78,1.4,2.65.94,4.92,2.14,6.76,3.62,1.85,1.48,3.27,3.05,4.24,4.71.99,1.68,1.48,3.24,1.48,4.69s-.56,2.73-1.65,3.76c-1.11,1.02-2.44,1.53-4.01,1.53-1.01,0-1.86-.26-2.54-.78-.68-.53-1.43-1.37-2.28-2.54-1.51-2.28-3.08-4.01-4.72-5.15-1.65-1.14-3.73-1.71-6.25-1.71-3.64,0-6.58,1.42-8.8,4.27-2.24,2.84-3.35,6.72-3.35,11.65,0,2.31.29,4.44.86,6.38.57,1.94,1.39,3.61,2.48,4.96,1.08,1.37,2.39,2.4,3.93,3.11,1.53.71,3.22,1.07,5.06,1.07,2.47,0,4.58-.57,6.33-1.71,1.77-1.14,3.33-2.9,4.69-5.24.74-1.39,1.56-2.47,2.43-3.24.87-.78,1.94-1.19,3.21-1.19,1.51,0,2.76.59,3.74,1.72.99,1.14,1.5,2.36,1.5,3.65h0Zm20.45-45.69v18.26c1.57-1.8,3.1-3.24,4.59-4.29,1.48-1.05,3.13-1.85,4.93-2.37,1.82-.52,3.76-.78,5.84-.78,3.13,0,5.9.66,8.34,1.99,2.42,1.33,4.32,3.25,5.7,5.78.88,1.47,1.46,3.12,1.77,4.95.29,1.82.45,3.91.45,6.29v23.62c0,2.46-.57,4.33-1.7,5.59-1.12,1.26-2.63,1.89-4.5,1.89-4.07,0-6.1-2.49-6.1-7.49v-20.82c0-3.94-.58-6.98-1.76-9.09-1.17-2.13-3.4-3.19-6.69-3.19-2.19,0-4.18.63-5.93,1.88-1.76,1.25-3.08,2.94-3.94,5.11-.67,1.84-1,5.1-1,9.8v16.3c0,2.43-.55,4.28-1.65,5.56-1.09,1.28-2.62,1.93-4.56,1.93-4.05,0-6.08-2.49-6.08-7.49v-53.44c0-2.5.54-4.36,1.6-5.61,1.06-1.25,2.56-1.88,4.48-1.88s3.47.63,4.56,1.89c1.1,1.26,1.65,3.13,1.65,5.59h0Zm54.98,17.63v1.5c2.17-2.87,4.55-4.96,7.12-6.3,2.57-1.34,5.53-2,8.88-2s6.15.71,8.72,2.13c2.55,1.4,4.47,3.4,5.73,5.99.82,1.51,1.34,3.13,1.59,4.89.23,1.74.35,3.96.35,6.67v22.95c0,2.46-.57,4.33-1.69,5.59-1.13,1.26-2.61,1.89-4.41,1.89s-3.33-.65-4.48-1.94c-1.14-1.29-1.71-3.14-1.71-5.55v-20.56c0-4.05-.57-7.17-1.69-9.32-1.13-2.14-3.38-3.22-6.75-3.22-2.19,0-4.19.65-6.01,1.96-1.81,1.31-3.13,3.11-3.96,5.41-.6,1.83-.91,5.26-.91,10.3v15.44c0,2.5-.59,4.36-1.74,5.61-1.15,1.25-2.65,1.88-4.47,1.88s-3.24-.65-4.38-1.94c-1.14-1.29-1.71-3.14-1.71-5.55v-35.63c0-2.34.51-4.1,1.53-5.25,1.03-1.16,2.42-1.74,4.19-1.74,1.08,0,2.06.26,2.93.77.88.51,1.57,1.28,2.09,2.3.53,1.03.78,2.28.78,3.74h0Zm90.83,18.26c0,3.68-.57,7.06-1.71,10.15-1.16,3.1-2.81,5.77-4.98,7.98-2.16,2.24-4.76,3.93-7.77,5.12-3,1.19-6.4,1.79-10.15,1.79s-7.1-.6-10.08-1.8-5.56-2.93-7.75-5.18c-2.17-2.23-3.84-4.88-4.96-7.94-1.13-3.07-1.7-6.44-1.7-10.14s.57-7.15,1.71-10.24c1.16-3.1,2.79-5.75,4.93-7.95,2.14-2.19,4.73-3.88,7.77-5.07,3.03-1.18,6.4-1.79,10.08-1.79s7.12.6,10.15,1.8c3.04,1.2,5.64,2.93,7.81,5.16,2.17,2.22,3.82,4.87,4.95,7.95,1.12,3.07,1.69,6.46,1.69,10.15h0Zm-12.39,0c0-5.02-1.11-8.92-3.31-11.73-2.22-2.79-5.18-4.19-8.91-4.19-2.42,0-4.53.61-6.37,1.86-1.83,1.25-3.25,3.1-4.24,5.53-1,2.44-1.49,5.29-1.49,8.52s.49,6.04,1.46,8.45c.99,2.4,2.37,4.25,4.19,5.53,1.82,1.28,3.98,1.91,6.44,1.91,3.73,0,6.69-1.4,8.91-4.22,2.2-2.81,3.31-6.71,3.31-11.67h0Zm22.1,17.55v-53.44c0-2.47.55-4.33,1.65-5.59,1.1-1.26,2.57-1.89,4.44-1.89s3.36.63,4.5,1.88c1.14,1.25,1.71,3.11,1.71,5.61v53.44c0,2.5-.59,4.36-1.74,5.61-1.16,1.25-2.65,1.88-4.47,1.88s-3.27-.65-4.39-1.94c-1.12-1.29-1.69-3.14-1.69-5.55h0Zm71.19-17.55c0,3.68-.57,7.06-1.71,10.15-1.16,3.1-2.81,5.77-4.98,7.98-2.16,2.24-4.76,3.93-7.77,5.12-3,1.19-6.4,1.79-10.15,1.79s-7.1-.6-10.08-1.8-5.56-2.93-7.75-5.18c-2.17-2.23-3.84-4.88-4.96-7.94-1.13-3.07-1.7-6.44-1.7-10.14s.57-7.15,1.71-10.24c1.16-3.1,2.79-5.75,4.93-7.95,2.14-2.19,4.73-3.88,7.77-5.07,3.03-1.18,6.4-1.79,10.08-1.79s7.12.6,10.15,1.8c3.04,1.2,5.64,2.93,7.81,5.16,2.17,2.22,3.82,4.87,4.95,7.95,1.12,3.07,1.69,6.46,1.69,10.15h0Zm-12.39,0c0-5.02-1.11-8.92-3.31-11.73-2.22-2.79-5.18-4.19-8.91-4.19-2.42,0-4.53.61-6.37,1.86-1.83,1.25-3.25,3.1-4.24,5.53-1,2.44-1.5,5.29-1.5,8.52s.49,6.04,1.47,8.45c.99,2.4,2.37,4.25,4.19,5.53,1.82,1.28,3.98,1.91,6.44,1.91,3.73,0,6.69-1.4,8.91-4.22,2.2-2.81,3.31-6.71,3.31-11.67h0Zm67.41-16.01v35.8c0,4.1-.43,7.61-1.31,10.55-.88,2.96-2.26,5.39-4.19,7.32-1.93,1.92-4.45,3.36-7.57,4.28-3.11.94-7,1.4-11.62,1.4-4.26,0-8.05-.6-11.39-1.79-3.33-1.19-5.9-2.73-7.72-4.61-1.81-1.88-2.7-3.81-2.7-5.79,0-1.51.51-2.73,1.53-3.68,1.03-.94,2.26-1.42,3.71-1.42,1.8,0,3.39.78,4.75,2.39.66.8,1.36,1.62,2.05,2.45.71.81,1.5,1.52,2.34,2.11.86.58,1.89,1.03,3.1,1.31,1.2.29,2.59.43,4.15.43,3.19,0,5.65-.45,7.41-1.33,1.77-.89,3-2.13,3.7-3.73.71-1.59,1.12-3.3,1.25-5.11.12-1.82.22-4.73.26-8.77-1.89,2.65-4.08,4.67-6.56,6.04-2.48,1.39-5.44,2.08-8.86,2.08-4.13,0-7.74-1.05-10.82-3.16-3.08-2.11-5.45-5.06-7.1-8.86-1.65-3.79-2.48-8.17-2.48-13.13,0-3.71.51-7.06,1.51-10.03,1.02-2.97,2.45-5.5,4.31-7.54,1.87-2.05,4.01-3.59,6.46-4.64,2.44-1.03,5.11-1.56,8.03-1.56,3.49,0,6.52.68,9.08,2.02,2.56,1.34,4.93,3.45,7.12,6.32v-1.68c0-2.14.54-3.8,1.59-4.98,1.05-1.18,2.4-1.77,4.07-1.77,2.37,0,3.96.78,4.75,2.34.78,1.56,1.17,3.79,1.17,6.72h0Zm-35.69,15.62c0,4.99,1.09,8.77,3.27,11.33,2.19,2.56,4.99,3.84,8.46,3.84,2.04,0,3.98-.55,5.79-1.65,1.82-1.09,3.3-2.76,4.44-4.96,1.14-2.22,1.71-4.9,1.71-8.06,0-5.02-1.11-8.94-3.31-11.74-2.21-2.79-5.12-4.19-8.72-4.19s-6.33,1.34-8.46,4.02c-2.11,2.68-3.17,6.49-3.17,11.42h0Zm59.53,26.98l1.14-2.76-15.17-38.2c-.94-2.2-1.4-3.8-1.4-4.79,0-1.05.28-2.03.82-2.94.54-.89,1.28-1.62,2.23-2.16.94-.54,1.93-.82,2.94-.82,1.79,0,3.13.57,4.02,1.69.91,1.12,1.7,2.74,2.39,4.85l10.43,30.35,9.88-28.22c.78-2.29,1.49-4.08,2.12-5.38.63-1.29,1.29-2.17,2-2.62.71-.45,1.71-.68,3-.68.93,0,1.82.24,2.68.74.85.51,1.51,1.17,1.99,2.02.46.83.69,1.73.69,2.67-.13.57-.31,1.39-.59,2.44-.28,1.05-.6,2.12-.99,3.2l-16.07,42.09c-1.39,3.71-2.74,6.61-4.05,8.72-1.32,2.11-3.08,3.73-5.27,4.86-2.17,1.12-5.12,1.69-8.81,1.69s-6.32-.38-8.12-1.17c-1.8-.78-2.71-2.22-2.71-4.28,0-1.42.43-2.51,1.3-3.27.85-.77,2.13-1.16,3.81-1.16.66,0,1.31.09,1.94.26.78.18,1.46.28,2.04.28,1.42,0,2.53-.22,3.33-.63.82-.42,1.54-1.16,2.19-2.19.65-1.05,1.4-2.57,2.24-4.59Z"/>
  </g>
</svg>