<?xml version="1.0" encoding="UTF-8"?>
<svg id="Layer_1" xmlns="http://www.w3.org/2000/svg" version="1.1" viewBox="0 0 127.7 29.7">
  <!-- Generator: Adobe Illustrator 30.5.1, SVG Export Plug-In . SVG Version: 2.1.4 Build 3)  -->
  <defs>
    <style>
      .st0 {
        fill: #5e5e5e;
      }

      .st0, .st1, .st2 {
        fill-rule: evenodd;
      }

      .st1 {
        fill: #35b0bf;
      }

      .st2 {
        fill: #373435;
      }
    </style>
  </defs>
  <path class="st1" d="M31.3,5.8c1.6,2.4,1.9,5.4,1.1,8.5C3.8,11.8,15.7,3.7,20.2,1.2c4.7-.3,8.9,1.2,11.1,4.6h0ZM32.2,14.7c-1.2,4.1-4.4,8.3-9,11.3-7.4,4.8-16.1,4.9-20.5.7,5.2-8.3,18.3-11.1,29.4-11.9h0ZM0,20.5c2.1-2.2,6.1-5.1,12.2-5.4,0,0-6.6-2-2.8-10.2C3.2,9-.3,15.2,0,20.5Z"/>
  <path class="st2" d="M54,17.8c0,1.1-.2,2.1-.7,2.8-.5.8-1.1,1.3-2,1.7-.9.4-1.9.5-3.1.5h-6.9c-.2,0-.4,0-.6-.3-.2-.2-.3-.4-.3-.6V5.7c0-.2,0-.4.3-.6.2-.2.4-.3.6-.3h6c1,0,1.9.1,2.6.3s1.4.5,1.8.9c.5.4.9.9,1.1,1.5.3.6.4,1.2.4,2,0,2-1.1,3.3-3.3,3.9,1.3.2,2.3.7,3,1.5.7.8,1,1.7,1,2.9h0ZM50.1,9.5c0-.9-.3-1.5-1-1.9-.7-.4-1.5-.6-2.5-.6h-2.8v5.7h2.3c2.6,0,4-1,4-3.1h0ZM50.8,17.8c0-.8-.2-1.4-.5-1.9-.3-.5-.8-.9-1.3-1.1-.5-.2-1.1-.3-1.8-.3h-3.4v6.3h3.5c.6,0,1.2-.1,1.8-.3.5-.2.9-.5,1.2-1,.3-.4.5-1,.5-1.7h0ZM60.3,7.5c0,.2,0,.4-.3.6-.2.2-.4.3-.6.3h-1.8c-.2,0-.4,0-.6-.3-.2-.2-.3-.4-.3-.6v-1.8c0-.2,0-.4.3-.6.2-.2.4-.3.6-.3h1.8c.2,0,.4,0,.6.3.2.2.3.4.3.6v1.8h0ZM60.1,21.9c0,.2,0,.4-.2.6-.2.2-.4.3-.6.3h-1.5c-.2,0-.4,0-.6-.3-.2-.2-.3-.4-.3-.6v-10.1c0-.2,0-.4.3-.6.2-.2.4-.3.6-.3h1.5c.2,0,.4,0,.6.3.2.2.2.4.2.6v10.1h0ZM71.9,21.9c0,.2,0,.4-.3.6-.2.2-.4.3-.6.3h-7.9c-.2,0-.4,0-.6-.3-.2-.2-.3-.4-.3-.6v-.4c0-.2,0-.3.2-.5l5.9-8.4c-.2,0-.4,0-.7,0-.3,0-.7,0-1.3,0-.6,0-1.2,0-1.8,0-.6,0-.9,0-1.1,0-.2,0-.4,0-.6-.3-.2-.2-.3-.4-.3-.6h0c0-.3,0-.5.3-.7.2-.2.4-.3.6-.3h7.5c.2,0,.4,0,.6.3.2.2.2.4.2.6v.3c0,.2,0,.4-.2.5l-5.9,8.3c.5,0,1.3,0,2.4,0,1.1,0,2,0,2.9,0s.4,0,.6.3c.2.2.2.4.2.6v.2h0ZM81.5,21.6c0,.1,0,.2-.2.3-.3.2-.7.4-1.1.6-.4.2-.9.3-1.4.5-.5.1-1,.2-1.5.2-.9,0-1.5-.3-1.9-.8-.4-.6-.6-1.4-.6-2.5v-7h-.8c-.2,0-.4,0-.6-.3-.2-.2-.3-.4-.3-.6h0c0-.3,0-.5.2-.7.2-.2.4-.3.6-.3h.8v-2.5c0-.2,0-.4.3-.6.2-.2.4-.3.6-.3h1.3c.2,0,.4,0,.6.3.2.2.2.4.2.6v2.5h2.3c.2,0,.4,0,.6.3.2.2.2.4.2.6h0c0,.3,0,.5-.3.7-.2.2-.4.2-.6.2h-2.3v6.6c0,.6,0,1,.2,1.3.1.3.4.4.7.4s.7,0,1-.2c.3-.2.6-.4.8-.6,0,0,.2-.1.3-.1s.2,0,.3.2l.3,1.1s0,0,0,0c0,0,0,0,0,0h0ZM93.6,16.3c0,.2,0,.4-.2.6-.2.2-.4.3-.6.3h-6.7c0,1.4.3,2.5.8,3.1.5.6,1.3.9,2.3.9s1.1-.1,1.8-.3c.7-.2,1.3-.6,1.8-1.2,0,0,.1,0,.2,0,.2,0,.3.1.3.3v1.6c.1,0,.1,0,.1,0,0,.1,0,.2-.2.3-.6.4-1.2.7-1.9.9-.6.2-1.4.4-2.3.4-2.2,0-3.7-.6-4.6-1.8-.9-1.2-1.4-2.7-1.4-4.6s.2-2.3.5-3.1c.3-.8.8-1.5,1.3-1.9.6-.5,1.2-.8,1.8-1,.6-.2,1.3-.3,2-.3,1.3,0,2.3.3,3,.8.7.6,1.2,1.2,1.5,2,.3.8.4,1.6.4,2.5v.4h0ZM91,15.8c0-1.2-.2-2.1-.6-2.6-.3-.5-.9-.8-1.7-.8-1.6,0-2.5,1.1-2.6,3.4h4.9ZM105,21.6c0,0,0,.1-.1.2-1.2.8-2.5,1.3-4,1.3s-3.5-.6-4.4-1.7c-.9-1.1-1.3-2.6-1.3-4.6s.2-2.8.7-3.7c.5-.9,1.1-1.6,2-2,.8-.4,1.8-.6,3-.6s1.6,0,2,.2c.5.2,1.1.5,1.8.9,0,0,.1.2.1.4l-.3,1.7c0,.2-.1.3-.3.3s-.2,0-.3-.1c-.5-.5-.9-.8-1.3-1-.4-.2-1-.3-1.8-.3s-1.2.2-1.6.6c-.4.4-.6.9-.7,1.5-.1.6-.2,1.4-.2,2.3,0,1.6.2,2.7.6,3.3.4.6,1,.9,1.9.9,1.4,0,2.5-.5,3.5-1.5,0,0,.1,0,.2,0s.1,0,.2,0c0,0,0,.1,0,.2v1.8c.1,0,.1,0,.1,0h0ZM117.6,21.9c0,.2,0,.4-.3.6-.2.2-.4.3-.6.3h-1.5c-.2,0-.4,0-.6-.3-.2-.2-.3-.4-.3-.6v-7.9c0-.6-.1-1-.3-1.2-.2-.2-.5-.3-1-.3s-1,.2-1.4.5c-.4.3-.7.7-.9,1.2-.2.5-.3.9-.3,1.3v6.4c0,.2,0,.4-.3.6-.2.2-.4.3-.6.3h-1.5c-.2,0-.4,0-.6-.3-.2-.2-.3-.4-.3-.6V5.7c0-.2,0-.4.3-.6.2-.2.4-.3.6-.3h1.5c.2,0,.4,0,.6.3.2.2.3.4.3.6v7.3c.5-.8,1-1.4,1.5-1.8.6-.4,1.3-.6,2.2-.6,1.3,0,2.3.3,2.7.9.5.6.7,1.4.7,2.4v7.9Z"/>
  <g>
    <path class="st0" d="M123,4.3h.9c.2,0,.4,0,.5.1,0,0,.1.3.1.5v.4c0,.1,0,.2,0,.4,0,0,0,.1,0,.2h1c0-.2-.1-.2-.2-.4,0,0,0-.2,0-.4v-.3c0-.3,0-.5-.1-.7,0-.1-.2-.3-.4-.3.2,0,.4-.2.5-.4.1-.2.2-.4.2-.6s0-.3,0-.4c0-.1-.1-.3-.2-.4-.1-.1-.2-.2-.4-.3-.2,0-.4-.1-.7-.1h-2v4.3h.9v-1.7h0ZM123,2.5h1c.2,0,.3,0,.4,0,.2,0,.2.3.2.5s0,.4-.3.5c0,0-.2,0-.4,0h-1v-1.1Z"/>
    <path class="st0" d="M123.8,7.7c2.1,0,3.9-1.7,3.9-3.9s-1.7-3.9-3.9-3.9-3.9,1.7-3.9,3.9,1.7,3.9,3.9,3.9h0ZM123.8.6c1.8,0,3.3,1.5,3.3,3.3s-1.5,3.3-3.3,3.3-3.3-1.5-3.3-3.3,1.5-3.3,3.3-3.3Z"/>
  </g>
</svg>